<mxfile host="app.diagrams.net" modified="2021-04-09T07:46:50.620Z" agent="5.0 (Windows NT 10.0; Win64; x64) AppleWebKit/537.36 (KHTML, like Gecko) Chrome/89.0.4389.114 Safari/537.36" etag="KfmdmPCpD8w3Ff7zRa4S" version="14.5.8" type="github">
  <diagram id="VtSy_Q-Btb6EDuqj47xK" name="第 1 页">
    <mxGraphModel dx="1278" dy="548" grid="1" gridSize="10" guides="1" tooltips="1" connect="1" arrows="1" fold="1" page="1" pageScale="1" pageWidth="827" pageHeight="1169" math="0" shadow="0">
      <root>
        <mxCell id="0" />
        <mxCell id="1" parent="0" />
        <mxCell id="a7CUaGTJx7ZSAqyBnmOa-16" style="edgeStyle=none;rounded=0;orthogonalLoop=1;jettySize=auto;html=1;exitX=0.34;exitY=1.068;exitDx=0;exitDy=0;exitPerimeter=0;" edge="1" parent="1" source="a7CUaGTJx7ZSAqyBnmOa-2" target="a7CUaGTJx7ZSAqyBnmOa-4">
          <mxGeometry relative="1" as="geometry" />
        </mxCell>
        <mxCell id="a7CUaGTJx7ZSAqyBnmOa-17" style="edgeStyle=none;rounded=0;orthogonalLoop=1;jettySize=auto;html=1;entryX=0.608;entryY=-0.05;entryDx=0;entryDy=0;entryPerimeter=0;" edge="1" parent="1" source="a7CUaGTJx7ZSAqyBnmOa-2" target="a7CUaGTJx7ZSAqyBnmOa-5">
          <mxGeometry relative="1" as="geometry" />
        </mxCell>
        <mxCell id="a7CUaGTJx7ZSAqyBnmOa-19" style="edgeStyle=none;rounded=0;orthogonalLoop=1;jettySize=auto;html=1;entryX=0.5;entryY=0;entryDx=0;entryDy=0;exitX=0.357;exitY=1.052;exitDx=0;exitDy=0;exitPerimeter=0;" edge="1" parent="1" source="a7CUaGTJx7ZSAqyBnmOa-2" target="a7CUaGTJx7ZSAqyBnmOa-6">
          <mxGeometry relative="1" as="geometry" />
        </mxCell>
        <mxCell id="a7CUaGTJx7ZSAqyBnmOa-23" style="edgeStyle=none;rounded=0;orthogonalLoop=1;jettySize=auto;html=1;" edge="1" parent="1" source="a7CUaGTJx7ZSAqyBnmOa-2" target="a7CUaGTJx7ZSAqyBnmOa-7">
          <mxGeometry relative="1" as="geometry" />
        </mxCell>
        <mxCell id="a7CUaGTJx7ZSAqyBnmOa-24" style="edgeStyle=none;rounded=0;orthogonalLoop=1;jettySize=auto;html=1;entryX=0.403;entryY=-0.01;entryDx=0;entryDy=0;entryPerimeter=0;" edge="1" parent="1" source="a7CUaGTJx7ZSAqyBnmOa-2" target="a7CUaGTJx7ZSAqyBnmOa-8">
          <mxGeometry relative="1" as="geometry" />
        </mxCell>
        <mxCell id="a7CUaGTJx7ZSAqyBnmOa-25" style="edgeStyle=none;rounded=0;orthogonalLoop=1;jettySize=auto;html=1;entryX=0.5;entryY=0;entryDx=0;entryDy=0;" edge="1" parent="1" source="a7CUaGTJx7ZSAqyBnmOa-2" target="a7CUaGTJx7ZSAqyBnmOa-9">
          <mxGeometry relative="1" as="geometry" />
        </mxCell>
        <mxCell id="a7CUaGTJx7ZSAqyBnmOa-26" style="edgeStyle=none;rounded=0;orthogonalLoop=1;jettySize=auto;html=1;entryX=0.5;entryY=0;entryDx=0;entryDy=0;" edge="1" parent="1" source="a7CUaGTJx7ZSAqyBnmOa-2" target="a7CUaGTJx7ZSAqyBnmOa-11">
          <mxGeometry relative="1" as="geometry" />
        </mxCell>
        <mxCell id="a7CUaGTJx7ZSAqyBnmOa-27" style="edgeStyle=none;rounded=0;orthogonalLoop=1;jettySize=auto;html=1;entryX=0.413;entryY=0.017;entryDx=0;entryDy=0;entryPerimeter=0;" edge="1" parent="1" source="a7CUaGTJx7ZSAqyBnmOa-2" target="a7CUaGTJx7ZSAqyBnmOa-12">
          <mxGeometry relative="1" as="geometry" />
        </mxCell>
        <mxCell id="a7CUaGTJx7ZSAqyBnmOa-28" style="edgeStyle=none;rounded=0;orthogonalLoop=1;jettySize=auto;html=1;entryX=0.5;entryY=0;entryDx=0;entryDy=0;" edge="1" parent="1" source="a7CUaGTJx7ZSAqyBnmOa-2" target="a7CUaGTJx7ZSAqyBnmOa-13">
          <mxGeometry relative="1" as="geometry" />
        </mxCell>
        <mxCell id="a7CUaGTJx7ZSAqyBnmOa-2" value="&lt;font style=&quot;font-size: 24px&quot;&gt;广金人论坛&lt;/font&gt;" style="rounded=0;whiteSpace=wrap;html=1;" vertex="1" parent="1">
          <mxGeometry x="460" y="80" width="140" height="50" as="geometry" />
        </mxCell>
        <mxCell id="a7CUaGTJx7ZSAqyBnmOa-4" value="我的打卡计划管理" style="rounded=0;whiteSpace=wrap;html=1;" vertex="1" parent="1">
          <mxGeometry x="30" y="330" width="110" height="60" as="geometry" />
        </mxCell>
        <mxCell id="a7CUaGTJx7ZSAqyBnmOa-5" value="&lt;span&gt;我的小组计划管理&lt;/span&gt;" style="rounded=0;whiteSpace=wrap;html=1;" vertex="1" parent="1">
          <mxGeometry x="150" y="330" width="100" height="60" as="geometry" />
        </mxCell>
        <mxCell id="a7CUaGTJx7ZSAqyBnmOa-6" value="&lt;span&gt;我的空间管理&lt;/span&gt;" style="rounded=0;whiteSpace=wrap;html=1;" vertex="1" parent="1">
          <mxGeometry x="260" y="330" width="100" height="60" as="geometry" />
        </mxCell>
        <mxCell id="a7CUaGTJx7ZSAqyBnmOa-7" value="&lt;span&gt;好友管理&lt;/span&gt;&lt;span style=&quot;color: rgba(0 , 0 , 0 , 0) ; font-family: monospace ; font-size: 0px&quot;&gt;%3CmxGraphModel%3E%3Croot%3E%3CmxCell%20id%3D%220%22%2F%3E%3CmxCell%20id%3D%221%22%20parent%3D%220%22%2F%3E%3CmxCell%20id%3D%222%22%20value%3D%22%26lt%3Bspan%26gt%3B%E6%88%91%E7%9A%84%E7%A9%BA%E9%97%B4%E7%AE%A1%E7%90%86%26lt%3B%2Fspan%26gt%3B%22%20style%3D%22rounded%3D0%3BwhiteSpace%3Dwrap%3Bhtml%3D1%3B%22%20vertex%3D%221%22%20parent%3D%221%22%3E%3CmxGeometry%20x%3D%22430%22%20y%3D%22320%22%20width%3D%22120%22%20height%3D%2260%22%20as%3D%22geometry%22%2F%3E%3C%2FmxCell%3E%3C%2Froot%3E%3C%2FmxGraphModel%3E&lt;/span&gt;" style="rounded=0;whiteSpace=wrap;html=1;" vertex="1" parent="1">
          <mxGeometry x="370" y="330" width="100" height="60" as="geometry" />
        </mxCell>
        <mxCell id="a7CUaGTJx7ZSAqyBnmOa-8" value="注册、登录&lt;br&gt;及个人信息管理" style="rounded=0;whiteSpace=wrap;html=1;" vertex="1" parent="1">
          <mxGeometry x="480" y="330" width="120" height="60" as="geometry" />
        </mxCell>
        <mxCell id="a7CUaGTJx7ZSAqyBnmOa-9" value="内推信息管理" style="rounded=0;whiteSpace=wrap;html=1;" vertex="1" parent="1">
          <mxGeometry x="610" y="330" width="120" height="60" as="geometry" />
        </mxCell>
        <mxCell id="a7CUaGTJx7ZSAqyBnmOa-11" value="招聘信息管理" style="rounded=0;whiteSpace=wrap;html=1;" vertex="1" parent="1">
          <mxGeometry x="750" y="330" width="110" height="60" as="geometry" />
        </mxCell>
        <mxCell id="a7CUaGTJx7ZSAqyBnmOa-12" value="举报管理" style="rounded=0;whiteSpace=wrap;html=1;" vertex="1" parent="1">
          <mxGeometry x="870" y="330" width="120" height="60" as="geometry" />
        </mxCell>
        <mxCell id="a7CUaGTJx7ZSAqyBnmOa-13" value="用户管理" style="rounded=0;whiteSpace=wrap;html=1;" vertex="1" parent="1">
          <mxGeometry x="1010" y="330" width="120" height="60" as="geometry" />
        </mxCell>
      </root>
    </mxGraphModel>
  </diagram>
</mxfile>
